# xmcd
#
# Track frame offsets:
#	150
#	13593
#	30138
#	44576
#	60004
#	71650
#	85784
#	103546
#	113724
#	130110
#
# Disc length: 1962 seconds
# Revision: 0
# Processed by: cddbd v1.5.2PL0 Copyright (c) Steve Scherf et al.
# Submitted via: dBpowerAMP V12.0
#
DISCID=6f07a80a
DTITLE=Sybil Gage - NOLA Calling
DYEAR=2011
DGENRE=Blues
TTITLE0=Champagne Daddy
TTITLE1=Catch New Orleans
TTITLE2=Honey Chile
TTITLE3=NOLA Calling
TTITLE4=Ding Dong Blues
TTITLE5=Hey Bro
TTITLE6='Bout Chu
TTITLE7=Sigh
TTITLE8=Ice Cold Blues
TTITLE9=Don't Worry 'bout Me
EXTD=
EXTT0=
EXTT1=
EXTT2=
EXTT3=
EXTT4=
EXTT5=
EXTT6=
EXTT7=
EXTT8=
EXTT9=
PLAYORDER=
